<?xml version="1.0" encoding="UTF-8" standalone="no"?><!DOCTYPE svg PUBLIC "-//W3C//DTD SVG 1.1//EN" "http://www.w3.org/Graphics/SVG/1.1/DTD/svg11.dtd"><svg width="100%" height="100%" viewBox="0 0 444 444" version="1.1" xmlns="http://www.w3.org/2000/svg" xmlns:xlink="http://www.w3.org/1999/xlink" xml:space="preserve" xmlns:serif="http://www.serif.com/" style="fill-rule:evenodd;clip-rule:evenodd;stroke-linejoin:round;stroke-miterlimit:2;"><path d="M156,306.6l0,16.6l60,44l0,76.7l-1,0c-119.4,-3.7 -215,-101.6 -215,-221.9c0,-122.6 99.4,-222 222,-222c122.6,0 222,99.4 222,222c0,120.3 -95.6,218.2 -215,221.9l0,-76.7l60,-44l0,-16.6l-60,44l0,-20.1l60,-44l0,-16.6l-60,44l0,-22l60,-44l0,-17.5l-60,44l0,-18.4l60,-44l0,-16.6l-60,44l0,-22l60,-44l0,-17.4l-60,44l0,-83l-13,0l0,83l-60,-44l0,17.5l60,44l0,22l-60,-44l0,16.6l60,44l0,18.4l-60,-44l0,17.5l60,44l0,22l-60,-44l0,16.6l60,44l0,20.1l-60,-44.1Z" style="fill-rule:nonzero;"/></svg>