<?xml version="1.0" standalone="no"?>
<!DOCTYPE svg PUBLIC "-//W3C//DTD SVG 20010904//EN"
 "http://www.w3.org/TR/2001/REC-SVG-20010904/DTD/svg10.dtd">
<svg version="1.0" xmlns="http://www.w3.org/2000/svg"
 width="700.000000pt" height="700.000000pt" viewBox="0 0 700.000000 700.000000"
 preserveAspectRatio="xMidYMid meet">
<metadata>
Created by potrace 1.11, written by Peter Selinger 2001-2013
</metadata>
<g transform="translate(0.000000,700.000000) scale(0.100000,-0.100000)"
fill="#000000" stroke="none">
<path d="M3278 6995 c-1 -1 -41 -5 -88 -9 -47 -4 -101 -9 -120 -12 -37 -5
-156 -23 -202 -30 -29 -4 -113 -23 -228 -50 -308 -74 -707 -244 -995 -425
-629 -395 -1121 -985 -1395 -1670 -66 -165 -142 -408 -165 -530 -3 -13 -11
-58 -20 -99 -29 -147 -35 -194 -52 -370 -15 -163 -8 -592 12 -711 2 -13 6 -46
9 -74 21 -184 114 -564 166 -680 5 -11 12 -31 15 -45 27 -99 191 -441 285
-592 28 -46 57 -92 63 -103 32 -52 178 -250 240 -325 312 -375 679 -668 1117
-892 328 -168 748 -301 1085 -343 28 -4 61 -8 74 -11 38 -5 210 -17 271 -18
l55 -1 0 603 1 604 -211 154 c-115 85 -328 240 -472 346 l-263 192 0 128 c0
70 2 128 4 128 3 0 68 -46 145 -102 76 -57 222 -164 323 -238 100 -74 188
-139 195 -145 7 -5 53 -39 103 -75 50 -36 107 -77 127 -92 20 -16 39 -28 42
-28 4 0 7 69 7 152 -1 151 -1 153 -26 173 -14 12 -135 102 -270 200 -135 98
-294 216 -355 260 -60 45 -152 112 -202 149 l-93 68 0 129 0 130 32 -22 c18
-13 92 -67 163 -119 72 -53 222 -163 335 -245 113 -82 210 -153 215 -157 55
-44 186 -138 192 -138 5 0 8 77 8 171 0 140 -3 172 -15 179 -8 5 -220 159
-470 343 l-455 334 -3 136 c-1 75 0 137 3 137 2 0 107 -75 232 -168 126 -92
239 -175 253 -184 14 -10 120 -87 235 -172 116 -86 212 -156 215 -156 3 0 5
64 5 141 l0 141 -230 170 c-126 93 -240 176 -252 186 -13 9 -122 89 -243 177
l-219 160 -1 128 c0 70 3 127 7 127 5 0 59 -38 88 -63 6 -5 49 -36 96 -70 115
-82 496 -361 705 -517 23 -16 43 -30 45 -30 3 0 4 77 4 170 l0 170 -50 38
c-90 67 -498 367 -521 382 -13 8 -102 73 -198 145 l-176 129 0 139 c0 110 3
137 13 130 47 -38 927 -683 930 -683 1 0 2 291 2 646 0 355 2 649 5 653 3 4
49 7 103 7 l97 0 0 -653 0 -653 27 17 c16 10 35 23 43 30 21 17 111 83 350
258 113 82 210 153 215 158 49 39 296 217 303 217 4 0 8 -59 8 -131 l-1 -131
-45 -35 c-43 -33 -664 -488 -823 -603 l-76 -55 -1 -172 c0 -95 1 -173 3 -173
2 0 103 73 224 163 122 89 232 169 244 177 12 8 39 29 60 45 21 17 75 57 121
90 46 33 88 63 93 68 57 44 188 137 194 137 4 0 7 -57 7 -126 l-1 -126 -95
-70 c-52 -38 -102 -75 -110 -81 -8 -7 -73 -55 -145 -107 -71 -52 -134 -98
-140 -102 -16 -13 -89 -67 -107 -81 -10 -6 -92 -66 -183 -132 l-165 -120 0
-144 0 -143 28 18 c15 9 68 47 117 84 99 73 356 262 394 288 12 9 33 24 45 33
97 74 342 252 351 255 7 3 11 -38 10 -130 l0 -135 -315 -231 c-173 -127 -324
-238 -335 -246 -11 -8 -82 -60 -157 -115 l-138 -101 0 -174 0 -174 68 50 c399
294 745 548 763 560 11 8 40 30 63 47 22 18 43 33 46 33 7 0 7 -257 0 -262 -3
-3 -103 -76 -223 -164 -445 -324 -495 -361 -605 -442 l-112 -83 0 -154 c0 -85
2 -155 5 -155 5 0 107 74 400 290 272 200 533 390 537 390 2 0 4 -57 4 -127
l0 -128 -62 -45 c-34 -25 -72 -53 -85 -63 -13 -10 -116 -85 -229 -168 -113
-82 -216 -158 -230 -169 -14 -10 -95 -70 -180 -132 l-155 -114 0 -605 0 -604
50 1 c47 1 200 12 255 19 35 4 181 26 205 31 11 2 36 7 55 10 72 12 339 85
450 122 562 191 1088 539 1480 981 36 41 70 79 75 85 62 67 240 317 320 450
179 298 346 717 411 1031 16 79 54 301 59 350 4 33 9 71 11 85 9 46 11 524 4
605 -12 128 -21 202 -25 227 -3 13 -8 43 -11 68 -3 25 -21 113 -40 195 -283
1266 -1247 2274 -2499 2614 -106 29 -282 67 -355 76 -19 3 -46 7 -60 10 -13 2
-52 7 -86 11 -33 3 -74 8 -90 10 -32 5 -540 14 -546 9z"/>
</g>
</svg>
